HIERARCHY
ROOT Reference
{
  OFFSET 0 0 0
  CHANNELS 6 Xposition Yposition Zposition Zrotation Xrotation Yrotation
  JOINT Hips
  {
    OFFSET 251.394 724.17 483.536
    CHANNELS 3 Zrotation Xrotation Yrotation
    JOINT RightUpLeg
    {
      OFFSET -0.450515 -23.4426 -1.37224
      CHANNELS 3 Zrotation Xrotation Yrotation
      JOINT RightLeg
      {
        OFFSET 112.821 0.0872427 -0.321027
        CHANNELS 3 Zrotation Xrotation Yrotation
        JOINT RightFoot
        {
          OFFSET 105.718 0.000193788 0.0213165
          CHANNELS 3 Zrotation Xrotation Yrotation
          JOINT RightToeBase
          {
            OFFSET 37.638 -0.000116272 0.00224792
            CHANNELS 3 Zrotation Xrotation Yrotation
            JOINT RightToeEnd
            {
              OFFSET 21.2112 0.114605 -0.000138184
              CHANNELS 3 Zrotation Xrotation Yrotation
              End Site
              {
                OFFSET 0 0 0
              }
            }
          }
        }
      }
    }
    JOINT LeftUpLeg
    {
      OFFSET -0.449508 23.4315 -1.37054
      CHANNELS 3 Zrotation Xrotation Yrotation
      JOINT LeftLeg
      {
        OFFSET 112.821 -0.0485242 -0.372458
        CHANNELS 3 Zrotation Xrotation Yrotation
        JOINT LeftFoot
        {
          OFFSET 105.716 0.00496094 -0.0229443
          CHANNELS 3 Zrotation Xrotation Yrotation
          JOINT LeftToeBase
          {
            OFFSET 37.639 0 0.00158905
            CHANNELS 3 Zrotation Xrotation Yrotation
            JOINT LeftToeEnd
            {
              OFFSET 21.2113 -0.125031 -0.00017438
              CHANNELS 3 Zrotation Xrotation Yrotation
              End Site
              {
                OFFSET 0 0 0
              }
            }
          }
        }
      }
    }
    JOINT Spine
    {
      OFFSET -5.01225 0.000463591 -9.60395
      CHANNELS 3 Zrotation Xrotation Yrotation
      JOINT Spine1
      {
        OFFSET 26.0222 -0.000271301 -0.000155029
        CHANNELS 3 Zrotation Xrotation Yrotation
        JOINT Spine2
        {
          OFFSET 27.173 -0.000155029 -0.000310058
          CHANNELS 3 Zrotation Xrotation Yrotation
          JOINT Spine3
          {
            OFFSET 36.3953 -0.000232544 7.75146e-005
            CHANNELS 3 Zrotation Xrotation Yrotation
            JOINT Neck
            {
              OFFSET 36.4331 0 -3.00261
              CHANNELS 3 Zrotation Xrotation Yrotation
              JOINT Head
              {
                OFFSET 23.0407 -0.000232544 -0.000310058
                CHANNELS 3 Zrotation Xrotation Yrotation
                End Site
                {
                  OFFSET 0 0 0
                }
              }
            }
            JOINT LeftShoulder
            {
              OFFSET 20.1317 6.74168 -12.6061
              CHANNELS 3 Zrotation Xrotation Yrotation
              JOINT LeftArm
              {
                OFFSET 34.2172 -5.81359e-005 7.75146e-005
                CHANNELS 3 Zrotation Xrotation Yrotation
                JOINT LeftForeArm
                {
                  OFFSET 65.4129 -0.0821605 0.0585235
                  CHANNELS 3 Zrotation Xrotation Yrotation
                  JOINT LeftHand
                  {
                    OFFSET 67.3883 0.0359667 0.0112396
                    CHANNELS 3 Zrotation Xrotation Yrotation
                    JOINT LeftHandThumb1
                    {
                      OFFSET 8.78386 2.85353 -6.05362
                      CHANNELS 3 Zrotation Xrotation Yrotation
                      JOINT LeftHandThumb2
                      {
                        OFFSET 8.25498 -0.000116272 -0.000174407
                        CHANNELS 3 Zrotation Xrotation Yrotation
                        JOINT LeftHandThumb3
                        {
                          OFFSET 7.24822 0.000310058 5.81358e-005
                          CHANNELS 3 Zrotation Xrotation Yrotation
                          JOINT LeftHandThumb4
                          {
                            OFFSET 7.0004 -3.87568e-005 -0.000310057
                            CHANNELS 3 Zrotation Xrotation Yrotation
                            End Site
                            {
                              OFFSET 0 0 0
                            }
                          }
                        }
                      }
                    }
                    JOINT LeftHandIndex1
                    {
                      OFFSET 24.0991 -1.01537 -5.40558
                      CHANNELS 3 Zrotation Xrotation Yrotation
                      JOINT LeftHandIndex2
                      {
                        OFFSET 7.26759 -0.000290679 -0.000465086
                        CHANNELS 3 Zrotation Xrotation Yrotation
                        JOINT LeftHandIndex3
                        {
                          OFFSET 7.13628 -1.93787e-005 0.000232543
                          CHANNELS 3 Zrotation Xrotation Yrotation
                          JOINT LeftHandIndex4
                          {
                            OFFSET 5.46699 9.68932e-005 -0.000387571
                            CHANNELS 3 Zrotation Xrotation Yrotation
                            End Site
                            {
                              OFFSET 0 0 0
                            }
                          }
                        }
                      }
                    }
                    JOINT LeftHandMiddle1
                    {
                      OFFSET 24.4604 -2.52837 0.918567
                      CHANNELS 3 Zrotation Xrotation Yrotation
                      JOINT LeftHandMiddle2
                      {
                        OFFSET 7.41627 -5.81359e-005 0.000116271
                        CHANNELS 3 Zrotation Xrotation Yrotation
                        JOINT LeftHandMiddle3
                        {
                          OFFSET 8.76829 3.87573e-005 -7.75142e-005
                          CHANNELS 3 Zrotation Xrotation Yrotation
                          JOINT LeftHandMiddle4
                          {
                            OFFSET 6.07588 -0.00013565 -5.81356e-005
                            CHANNELS 3 Zrotation Xrotation Yrotation
                            End Site
                            {
                              OFFSET 0 0 0
                            }
                          }
                        }
                      }
                    }
                    JOINT LeftHandRing1
                    {
                      OFFSET 22.465 -1.97467 6.3466
                      CHANNELS 3 Zrotation Xrotation Yrotation
                      JOINT LeftHandRing2
                      {
                        OFFSET 7.36666 -0.000232544 0.000387571
                        CHANNELS 3 Zrotation Xrotation Yrotation
                        JOINT LeftHandRing3
                        {
                          OFFSET 8.07624 -0.000465087 -0.000203475
                          CHANNELS 3 Zrotation Xrotation Yrotation
                          JOINT LeftHandRing4
                          {
                            OFFSET 6.04433 0.00013565 3.87571e-005
                            CHANNELS 3 Zrotation Xrotation Yrotation
                            End Site
                            {
                              OFFSET 0 0 0
                            }
                          }
                        }
                      }
                    }
                    JOINT LeftHandPinky1
                    {
                      OFFSET 19.5278 0.352933 10.4295
                      CHANNELS 3 Zrotation Xrotation Yrotation
                      JOINT LeftHandPinky2
                      {
                        OFFSET 6.16525 5.8136e-005 -0.000251921
                        CHANNELS 3 Zrotation Xrotation Yrotation
                        JOINT LeftHandPinky3
                        {
                          OFFSET 6.14448 -0.000329434 -0.00510625
                          CHANNELS 3 Zrotation Xrotation Yrotation
                          JOINT LeftHandPinky4
                          {
                            OFFSET 4.98555 0.000116272 0.000116271
                            CHANNELS 3 Zrotation Xrotation Yrotation
                            End Site
                            {
                              OFFSET 0 0 0
                            }
                          }
                        }
                      }
                    }
                  }
                }
              }
            }
            JOINT RightShoulder
            {
              OFFSET 20.1309 -6.74152 -12.6063
              CHANNELS 3 Zrotation Xrotation Yrotation
              JOINT RightArm
              {
                OFFSET 34.2171 7.75146e-005 7.75146e-005
                CHANNELS 3 Zrotation Xrotation Yrotation
                JOINT RightForeArm
                {
                  OFFSET 65.4492 0.242543 -0.176501
                  CHANNELS 3 Zrotation Xrotation Yrotation
                  JOINT RightHand
                  {
                    OFFSET 67.3888 -0.0867388 0.0597442
                    CHANNELS 3 Zrotation Xrotation Yrotation
                    JOINT RightHandThumb1
                    {
                      OFFSET 8.78307 -2.85357 -6.05302
                      CHANNELS 3 Zrotation Xrotation Yrotation
                      JOINT RightHandThumb2
                      {
                        OFFSET 8.25493 -7.75145e-005 0
                        CHANNELS 3 Zrotation Xrotation Yrotation
                        JOINT RightHandThumb3
                        {
                          OFFSET 7.24797 -0.000174408 0.000155029
                          CHANNELS 3 Zrotation Xrotation Yrotation
                          JOINT RightHandThumb4
                          {
                            OFFSET 7.00062 0 0
                            CHANNELS 3 Zrotation Xrotation Yrotation
                            End Site
                            {
                              OFFSET 0 0 0
                            }
                          }
                        }
                      }
                    }
                    JOINT RightHandIndex1
                    {
                      OFFSET 24.0991 1.01525 -5.40578
                      CHANNELS 3 Zrotation Xrotation Yrotation
                      JOINT RightHandIndex2
                      {
                        OFFSET 7.26773 7.75144e-005 0.000232543
                        CHANNELS 3 Zrotation Xrotation Yrotation
                        JOINT RightHandIndex3
                        {
                          OFFSET 7.13572 -0.000310058 3.87571e-005
                          CHANNELS 3 Zrotation Xrotation Yrotation
                          JOINT RightHandIndex4
                          {
                            OFFSET 5.46717 0 3.87572e-005
                            CHANNELS 3 Zrotation Xrotation Yrotation
                            End Site
                            {
                              OFFSET 0 0 0
                            }
                          }
                        }
                      }
                    }
                    JOINT RightHandMiddle1
                    {
                      OFFSET 24.4603 2.52899 0.918547
                      CHANNELS 3 Zrotation Xrotation Yrotation
                      JOINT RightHandMiddle2
                      {
                        OFFSET 7.41641 -0.000116272 -0.000116272
                        CHANNELS 3 Zrotation Xrotation Yrotation
                        JOINT RightHandMiddle3
                        {
                          OFFSET 8.76765 -3.87577e-005 0.000232543
                          CHANNELS 3 Zrotation Xrotation Yrotation
                          JOINT RightHandMiddle4
                          {
                            OFFSET 6.07609 -0.000193787 -0.000116271
                            CHANNELS 3 Zrotation Xrotation Yrotation
                            End Site
                            {
                              OFFSET 0 0 0
                            }
                          }
                        }
                      }
                    }
                    JOINT RightHandRing1
                    {
                      OFFSET 22.465 1.97571 6.34696
                      CHANNELS 3 Zrotation Xrotation Yrotation
                      JOINT RightHandRing2
                      {
                        OFFSET 7.36684 0.000193786 0.000155029
                        CHANNELS 3 Zrotation Xrotation Yrotation
                        JOINT RightHandRing3
                        {
                          OFFSET 8.07614 -0.000271301 0
                          CHANNELS 3 Zrotation Xrotation Yrotation
                          JOINT RightHandRing4
                          {
                            OFFSET 6.04468 0.000232543 0
                            CHANNELS 3 Zrotation Xrotation Yrotation
                            End Site
                            {
                              OFFSET 0 0 0
                            }
                          }
                        }
                      }
                    }
                    JOINT RightHandPinky1
                    {
                      OFFSET 19.5277 -0.352346 10.4296
                      CHANNELS 3 Zrotation Xrotation Yrotation
                      JOINT RightHandPinky2
                      {
                        OFFSET 6.16508 0 0.000232543
                        CHANNELS 3 Zrotation Xrotation Yrotation
                        JOINT RightHandPinky3
                        {
                          OFFSET 6.14396 -0.000155048 -0.0048834
                          CHANNELS 3 Zrotation Xrotation Yrotation
                          JOINT RightHandPinky4
                          {
                            OFFSET 4.98577 -7.75146e-005 -7.75143e-005
                            CHANNELS 3 Zrotation Xrotation Yrotation
                            End Site
                            {
                              OFFSET 0 0 0
                            }
                          }
                        }
                      }
                    }
                  }
                }
              }
            }
          }
        }
      }
    }
  }
}
MOTION
Frames:	5
Frame Time:	0.0333333
0 0 0 -90 -7.01671e-015 -180 0.725923 -17.7282 -119.653 155.628 13.9348 -115.354 7.96966 19.6129 -22.65 5.78623 12.6585 44.4052 -9.47185 2.54981 72.6676 3.70275e-005 3.29839e-005 -86.4974 -170.545 -7.99787 -113.534 -0.543527 -1.8112 -16.7496 -1.05324 -8.31024 45.0457 0.581535 -0.122637 56.7844 -3.56633e-006 -2.97944e-005 -86.4974 -6.20654 -2.48074 125.485 0.435331 0.712507 -8.63909 1.86459 1.58272 -8.1387 -0.741157 3.606 12.962 3.53201 1.23568 25.0491 0.940437 3.23284 52.0379 97.7459 26.5191 -23.7754 41.3787 25.3754 76.7271 -0.125991 8.78915 94.8126 45.1296 -70.3841 74.7029 -152.457 -2.4665 165.471 0.000384748 -5.2373e-005 16.6805 -0.00732301 -0.00324359 24.6919 0.000202343 -0.00138291 -0.000157945 112.551 80.5596 -66.9917 -0.00031922 -0.000311677 31.0513 0.00141832 -0.000603816 29.1945 -0.0025496 -0.00126565 -0.0264832 51.3396 87.9276 -0.138329 1.90906 0.0657786 42.5608 0.00130626 -0.000437446 39.6005 -0.000515656 -0.00033465 -0.0127624 -10.6886 87.3073 66.6311 0.000527424 -0.000717435 45.2 0.00205645 1.0572e-005 43.1554 -0.000113294 -0.000729999 -0.00728524 -20.4492 84.6385 76.7824 0.00157192 -0.000926589 45.5263 0.0229589 0.021525 43.8667 -0.000195731 0.000195933 -0.00921306 -98.1063 -24.7089 -25.7707 -58.1295 -34.1249 51.7871 -1.20392 -3.14516 100.111 -38.0706 55.6106 22.4515 173.795 50.4125 131.342 -8.67526e-005 1.88326e-005 2.20629 0.000171332 0.00013516 22.9963 4.57764e-005 7.01671e-015 180 -100.42 -79.0802 -71.7827 -0.000177974 0.000144785 54.6252 6.21862e-005 6.65697e-005 51.8827 -7.6179e-005 3.05173e-005 179.784 -16.0275 -85.6669 20.892 -5.98529e-005 3.40285e-005 67.9029 8.97238e-005 2.87945e-005 30.779 -6.08389e-005 4.57759e-005 179.754 -16.3861 -83.9198 33.8463 -2.51892e-005 0.000163395 40.3837 8.71717e-005 -0.000222304 43.0251 -1.30841e-007 -3.05173e-005 179.754 -20.1168 -81.3592 7.14325 -0.000115168 0.000188587 47.6085 -2.67527e-005 -2.01038e-005 34.7983 -0.00706459 -0.00941461 179.816 
0 0 0 -90 -7.01671e-015 -180 0.713882 -17.8106 -119.689 156.935 12.9914 -116.066 7.10174 17.8651 -22.1135 5.90519 11.4594 44.8787 -8.17271 3.52223 72.6866 3.71267e-005 2.69567e-005 -86.4974 -170.547 -8.00162 -113.82 -0.550405 -1.85603 -16.5622 -1.01057 -8.34621 45.1165 0.581536 -0.122655 56.7844 -3.53642e-006 -3.18544e-005 -86.4974 -6.38498 -2.61918 125.488 0.42066 0.8993 -8.6916 1.82758 1.76412 -8.19873 -0.793179 3.78346 12.9034 3.32385 1.49127 23.6158 0.86975 3.53739 50.728 97.7459 26.5192 -23.7753 40.2837 26.1272 76.9975 -0.12597 8.78906 94.8126 45.1298 -70.3842 74.7031 -153.147 -2.24471 165.458 0.000381526 -4.84239e-005 15.4971 0.000335262 0.000217038 23.2538 0.000202343 -0.00138533 -0.000157945 111.598 80.8228 -67.8886 -0.000319101 -0.000320175 29.5354 0.00139326 -0.000619041 27.7781 -0.00257307 -0.00117769 -0.027635 52.4602 88.36 -2.69239 1.54749 0.0236187 41.4675 0.00132871 -0.000494459 38.5236 -0.000514779 -0.00033286 -0.0128812 -18.9482 87.47 73.5089 0.000509121 -0.000727153 44.2015 0.00206252 -5.49891e-005 42.0622 -0.000113293 -0.000803564 -0.00728524 -27.0348 84.7359 81.9811 0.00155854 -0.000933667 44.5466 0.0233566 0.0210564 42.8174 -2.71036e-005 4.86465e-005 -0.0092993 -98.1064 -24.7089 -25.7707 -58.4012 -33.8628 50.286 -1.34633 -3.20651 101.353 -37.2718 56.16 21.1744 173.816 50.4218 130.868 -8.82833e-005 2.7595e-005 3.36887 -0.00642677 -0.00282379 24.1794 4.57764e-005 -1.52588e-005 180 -100.42 -79.0802 -71.7828 -0.000170438 0.000149545 54.6252 5.14111e-005 7.52792e-005 51.8804 -7.61779e-005 3.05173e-005 179.782 -15.9972 -85.6685 21.9789 -6.20013e-005 3.50686e-005 68.9467 9.12052e-005 3.10026e-005 31.8322 -6.08371e-005 4.57759e-005 179.752 -16.4311 -83.9165 34.8551 -2.69282e-005 0.00016335 41.439 9.22543e-005 -0.000226521 44.0738 -1.32052e-007 -3.05172e-005 179.752 -20.1018 -81.3447 8.1793 -0.000114454 0.000186999 48.6572 -3.18333e-005 -1.9156e-005 35.8496 -0.00668319 -0.00888055 179.804 
0 0 0 -90 -7.01671e-015 -180 0.700281 -17.9259 -119.73 158.475 11.8037 -116.85 6.12704 15.7701 -21.5648 6.00551 10.0184 45.4511 -6.67426 4.64246 72.6099 3.71719e-005 1.40416e-005 -86.4974 -170.555 -8.0151 -114.12 -0.563245 -1.91837 -16.406 -0.963221 -8.39759 45.23 0.581536 -0.122688 56.7844 -3.4265e-006 -3.4959e-005 -86.4974 -6.58994 -2.77725 125.49 0.407661 1.09476 -8.75077 1.79646 1.9525 -8.26518 -0.849111 3.96854 12.8393 3.08382 1.7967 22.0268 0.777659 3.89821 49.2506 97.746 26.5191 -23.7755 39.1251 26.9047 77.2734 -0.12598 8.78924 94.8126 45.1294 -70.3841 74.7027 -153.94 -1.99126 165.448 0.000380026 -4.48077e-005 14.1405 0.000319776 0.000156161 21.6048 0.000202343 -0.00138951 -0.000157945 110.589 81.1221 -69.0112 -0.0020071 -0.00161993 27.7955 0.0013653 -0.000631199 26.1477 -0.00260082 -0.00108288 -0.0287875 56.1853 88.847 -8.06597 1.13205 -0.00779852 40.206 0.00133147 -0.000537257 37.2797 -0.000514264 -0.000336136 -0.0130006 -29.3149 87.5964 82.277 0.000489978 -0.000734487 43.046 0.00206553 -0.000126405 40.8001 -0.000104119 -0.000730849 -0.00743294 -34.7679 84.7958 88.1187 0.0015383 -0.000945211 43.4138 0.000695955 1.97332e-005 41.6191 0.000145749 -9.86365e-005 -0.00938509 -98.1064 -24.7089 -25.7708 -58.6582 -33.5973 48.6795 -1.5065 -3.28031 102.777 -36.2978 56.7873 19.6586 173.754 50.3766 130.51 -8.80918e-005 4.19781e-005 4.70159 -0.00311522 -0.00138333 25.5019 4.57764e-005 -4.57763e-005 180 -100.42 -79.0802 -71.7831 -0.000172226 0.000135445 54.6252 3.93019e-005 8.65536e-005 51.8781 -7.61769e-005 3.05173e-005 179.78 -15.9666 -85.6701 23.0662 -6.84411e-005 3.45948e-005 69.9906 9.65389e-005 2.63474e-005 32.8819 -6.08353e-005 4.57759e-005 179.75 -16.4767 -83.9133 35.8633 -3.25767e-005 0.000168053 42.4942 0.000100107 -0.000231679 45.1225 -1.33263e-007 -3.05172e-005 179.75 -20.2901 -81.3351 9.15895 -0.000117671 0.000185516 49.7059 -3.04101e-005 -1.58887e-005 36.9009 -0.00628637 -0.00836175 179.793 
0 0 0 -90 -7.01671e-015 -180 0.685193 -18.0534 -119.773 160.111 10.4679 -117.644 5.1472 13.5511 -21.0422 6.06687 8.47723 46.0661 -5.15949 5.76509 72.404 3.71107e-005 -1.01605e-005 -86.4974 -170.57 -8.03753 -114.426 -0.579462 -1.98887 -16.2858 -0.914899 -8.45344 45.3833 0.581536 -0.122756 56.7844 -3.38278e-006 -3.92853e-005 -86.4974 -6.79409 -2.93646 125.49 0.396025 1.30329 -8.81581 1.76785 2.15254 -8.33724 -0.909092 4.16473 12.7701 2.84304 2.12215 20.4248 0.685304 4.27274 47.712 97.746 26.5191 -23.7755 38.0193 27.645 77.508 -0.12598 8.78924 94.8126 45.1294 -70.3841 74.7028 -154.733 -1.73769 165.441 0.000377708 -4.15665e-005 12.784 0.00030293 9.58763e-005 19.9559 0.000202341 -0.00139752 -0.000157945 109.584 81.4244 -70.1372 -0.00372955 -0.00286721 26.0557 0.001333 -0.000642634 24.5173 -0.00262557 -0.000990624 -0.0299401 66.3312 89.3165 -19.8601 0.716162 -0.0210069 38.9326 0.00130845 -0.00054544 36.0359 -0.000514461 -0.000335216 -0.0131199 -40.4239 87.6502 91.7874 0.000469411 -0.000747265 41.8906 0.00206283 -0.000191619 39.5381 -0.000104122 -0.000804934 -0.00743294 -42.5586 84.7795 94.3141 0.00151863 -0.000959346 42.2811 0.0248697 0.0205429 40.4021 0.000316014 -0.000245046 -0.00947069 -98.1064 -24.7088 -25.7708 -58.8815 -33.3613 47.1061 -1.66481 -3.35805 104.201 -35.2487 57.4151 18.0787 173.643 50.3012 130.256 -9.0628e-005 5.10474e-005 6.0343 0.000162152 0.000137489 26.8243 4.57764e-005 -0.000106811 180 -100.421 -79.0802 -71.7836 -0.000187202 9.12018e-005 54.6252 3.14666e-005 9.55565e-005 51.8757 -7.61758e-005 3.05173e-005 179.778 -15.8193 -85.6703 24.2002 -6.78303e-005 4.71764e-005 70.9167 0.000104137 2.47265e-005 33.8442 -6.08335e-005 4.57759e-005 179.748 -16.466 -83.9195 36.8465 -3.14618e-005 0.000174493 43.4748 0.000107985 -0.000240502 46.0721 -1.34474e-007 -3.05172e-005 179.748 -20.4793 -81.3261 10.1378 -0.000113106 0.000191828 50.6553 -5.11267e-005 -2.94998e-005 37.8629 -0.00588934 -0.00784295 179.781 
0 0 0 -90 -7.01671e-015 -180 0.669035 -18.1722 -119.818 161.719 9.08893 -118.393 4.25199 11.4361 -20.571 6.05713 6.97788 46.6776 -3.81392 6.74393 72.0641 3.69136e-005 -5.93532e-005 -86.4974 -170.59 -8.0678 -114.728 -0.59666 -2.05821 -16.2076 -0.869077 -8.50282 45.5739 0.581535 -0.122622 56.7844 -3.33339e-006 -4.85678e-005 -86.4974 -6.97008 -3.07833 125.489 0.385576 1.52927 -8.88593 1.73825 2.36893 -8.41395 -0.973545 4.37543 12.6964 2.62163 2.43487 18.9543 0.613956 4.61804 46.2185 97.746 26.5191 -23.7755 37.0877 28.2885 77.6464 -0.125991 8.78924 94.8126 45.1295 -70.3841 74.7028 -155.429 -1.51794 165.438 0.000375387 -3.86795e-005 11.6006 0.000282687 4.33827e-005 18.512 0.000202341 -0.00141335 -0.000157945 108.773 81.6889 -71.2056 -0.000331322 -0.000341299 24.5202 0.00130225 -0.000650104 23.0833 -0.00265202 -0.000896666 -0.0310953 99.9928 89.6364 -54.9695 0.353476 -0.0175214 37.8045 0.00128367 -0.000551595 34.9345 -0.000512846 -0.000336114 -0.0132395 -50.3105 87.6453 100.273 0.000449572 -0.000743366 40.8736 0.00204201 -0.000235132 38.4214 -9.43237e-005 -0.000732899 -0.00758045 -49.2902 84.7212 99.6439 0.00150069 -0.000971621 41.2758 0.0245662 0.019508 39.3368 0.000490211 -0.000392279 -0.00955703 -98.1063 -24.7089 -25.7707 -59.0531 -33.1871 45.7029 -1.80007 -3.42876 105.444 -34.2422 57.9688 16.6274 173.518 50.2189 130.093 -9.18155e-005 5.85769e-005 7.19688 0.0001598 0.00013674 27.9869 4.57764e-005 1.52588e-005 180 -100.42 -79.0802 -71.7826 -0.000178587 5.90105e-005 54.6252 1.95065e-005 0.000102788 51.8734 -7.61747e-005 3.05173e-005 179.776 -15.6567 -85.6693 25.181 -7.47625e-005 3.60675e-005 71.6679 0.000101307 1.85042e-005 34.6354 -6.08317e-005 4.57758e-005 179.745 -16.4131 -83.9304 37.7015 -3.45664e-005 0.00017604 44.2862 0.000111458 -0.000248189 46.8492 -1.35685e-007 -3.05172e-005 179.745 -20.7199 -81.3297 10.9148 -0.000124139 0.000181032 51.4323 -0.00606373 -0.00483378 38.6674 -0.0055073 -0.00730889 179.77 
